<svg width="48" height="48" viewBox="0 0 48 48" fill="none" xmlns="http://www.w3.org/2000/svg">
    <!-- Background Circle -->
    <circle cx="24" cy="24" r="24" fill="#FFDFD3"/>
    
    <!-- Face Shape -->
    <circle cx="24" cy="20" r="10" fill="#7857C1"/>
    
    <!-- Body Shape -->
    <path d="M12 48C12 41.3726 17.3726 36 24 36C30.6274 36 36 41.3726 36 48" fill="#7857C1"/>
    
    <!-- Hair -->
    <path d="M16 16C16 12 20 8 24 8C28 8 32 12 32 16C32 20 28 18 24 18C20 18 16 20 16 16Z" fill="#3B325F"/>
    <path d="M14 16C14 14 16 10 20 8" stroke="#3B325F" stroke-width="3" stroke-linecap="round"/>
    <path d="M34 16C34 14 32 10 28 8" stroke="#3B325F" stroke-width="3" stroke-linecap="round"/>
    
    <!-- Smile -->
    <path d="M20 20C20 20 22 22 24 22C26 22 28 20 28 20" stroke="#FFFFFF" stroke-width="1.5" stroke-linecap="round"/>
</svg>